<svg height="173" viewBox="0 0 800 173" width="800" xmlns="http://www.w3.org/2000/svg"><g fill="none" fill-rule="evenodd"><path d="m218.760742 149.381836v-3.228516h19.03711v3.228516h-7.71875v22.618164h-3.59961v-22.618164zm22.933594 22.618164v-25.84668h3.414062v9.666992c.531904-1.138026 1.261715-2.031735 2.189454-2.681152s2.127596-.974121 3.599609-.974121c.940109 0 1.793616.126789 2.560547.380371s1.428708.658689 1.985351 1.215332c.556644.556644.989582 1.270992 1.298829 2.143067.309246.872074.463867 1.932773.463867 3.182129v12.914062h-3.432617v-12.542969c0-1.422533-.272133-2.538895-.816407-3.349121-.544273-.810225-1.552401-1.215332-3.024414-1.215332-.705081 0-1.348304.139159-1.929687.417481-.581383.278321-1.08854.677243-1.521485 1.196777s-.770018 1.134925-1.01123 1.846191c-.241212.711267-.361817 1.487464-.361817 2.328614v11.318359zm20.632812-9.685547c0-1.472012.182453-2.835768.547364-4.091308.36491-1.255541.909176-2.325517 1.632812-3.209961.723637-.884445 1.598791-1.580239 2.625488-2.087403 1.026698-.507164 2.208002-.760742 3.543946-.760742 1.397793 0 2.616206.241209 3.655273.723633 1.039068.482424 1.89876 1.141109 2.579102 1.976074s1.193683 1.815261 1.540039 2.940918.519531 2.337884.519531 3.636719v1.818359h-13.043945v2.05957c0 .705082.132974 1.32975.398926 1.874024.265951.544273.627764 1.005044 1.085449 1.382324.457684.377281.971026.661783 1.540039.853516s1.156572.287597 1.762695.287597c1.212246 0 2.263668-.309241 3.154297-.927734.89063-.618493 1.397786-1.601881 1.521484-2.950195h3.432618c-.074219 1.039067-.346352 1.9637-.816407 2.773926-.470054.810225-1.07926 1.499834-1.827636 2.068847s-1.592606 1.008137-2.532715 1.317383-1.929682.463867-2.96875.463867c-1.397794 0-2.619298-.253578-3.664551-.760742s-1.917314-1.20605-2.616211-2.09668c-.698897-.890629-1.218423-1.954421-1.558594-3.191406s-.510254-2.603834-.510254-4.100586zm3.59961-1.78125h9.5v-1.076172c0-.705081-.126789-1.342119-.380371-1.911133-.253582-.569013-.599933-1.05143-1.039063-1.447265s-.946286-.6958-1.521484-.899903c-.575198-.204102-1.17822-.306152-1.809082-.306152-.630863 0-1.230792.10205-1.799805.306152-.569013.204103-1.07617.504068-1.521484.899903-.445315.395835-.794758.878252-1.04834 1.447265-.253582.569014-.380371 1.206052-.380371 1.911133zm28.22168 11.466797v-25.84668h3.618164v25.84668zm10.260742 0v-19.371094h3.414062v3.191406c.531904-1.138026 1.261714-2.031735 2.189453-2.681152s2.127597-.974121 3.59961-.974121c.940109 0 1.793616.126789 2.560547.380371.76693.253582 1.428708.658689 1.985351 1.215332.556644.556644.989582 1.270992 1.298828 2.143067.309247.872074.463867 1.932773.463867 3.182129v12.914062h-3.432617v-12.542969c0-1.422533-.272132-2.538895-.816406-3.349121-.544274-.810225-1.552401-1.215332-3.024414-1.215332-.705082 0-1.348304.139159-1.929688.417481-.581383.278321-1.088539.677243-1.521484 1.196777s-.770018 1.134925-1.01123 1.846191c-.241213.711267-.361817 1.487464-.361817 2.328614v11.318359zm21.65332 0v-19.371094h3.414062v3.191406c.531904-1.138026 1.261715-2.031735 2.189454-2.681152s2.127596-.974121 3.599609-.974121c.940109 0 1.793616.126789 2.560547.380371s1.428708.658689 1.985351 1.215332c.556644.556644.989582 1.270992 1.298829 2.143067.309246.872074.463867 1.932773.463867 3.182129v12.914062h-3.432617v-12.542969c0-1.422533-.272133-2.538895-.816407-3.349121-.544273-.810225-1.552401-1.215332-3.024414-1.215332-.705081 0-1.348304.139159-1.929687.417481-.581383.278321-1.08854.677243-1.521485 1.196777-.432944.519534-.770018 1.134925-1.01123 1.846191-.241212.711267-.361817 1.487464-.361817 2.328614v11.318359zm20.632812-9.685547c0-1.472012.176268-2.835768.528809-4.091308.352541-1.255541.890621-2.325517 1.614258-3.209961.723636-.884445 1.629715-1.580239 2.718262-2.087403s2.368807-.760742 3.84082-.760742 2.752273.253578 3.84082.760742 1.991533 1.202958 2.708985 2.087403c.717451.884444 1.255532 1.95442 1.614257 3.209961.358726 1.25554.538086 2.619296.538086 4.091308 0 1.496752-.17936 2.863601-.538086 4.100586-.358725 1.236985-.896806 2.300777-1.614257 3.191406-.717452.89063-1.62353 1.589516-2.718262 2.09668s-2.3719.760742-3.831543.760742c-1.472013 0-2.752273-.253578-3.84082-.760742s-1.994626-1.20605-2.718262-2.09668c-.723637-.890629-1.261717-1.954421-1.614258-3.191406s-.528809-2.603834-.528809-4.100586zm3.59961 3.005859c0 .655603.139159 1.255532.41748 1.799805.278322.544274.64632 1.005044 1.104004 1.382324.457685.377281.995765.674153 1.614258.890625.618493.216473 1.274085.324707 1.966797.324707.680342 0 1.329749-.108234 1.948242-.324707.618493-.216472 1.156573-.513344 1.614258-.890625.457685-.37728.825682-.83805 1.104004-1.382324.278322-.544273.41748-1.144202.41748-1.799805v-6.011718c0-.655602-.139158-1.255531-.41748-1.799805-.278322-.544273-.646319-1.008136-1.104004-1.391601-.457685-.383466-.995765-.68343-1.614258-.899903-.618493-.216472-1.2679-.324707-1.948242-.324707s-1.332842.108235-1.95752.324707c-.624677.216473-1.16585.516437-1.623535.899903-.457684.383465-.825682.847328-1.104004 1.391601-.278321.544274-.41748 1.144203-.41748 1.799805zm16.977539-12.691406h3.692383l4.861328 15.307617h.148437l4.954102-15.307617h3.525391l-6.958008 19.371094h-3.265625zm20.168945 14.045899c0-1.521492.482417-2.826492 1.447266-3.915039.964848-1.088547 2.4121-1.719401 4.341797-1.892578l6.308593-.575196v-1.558594c0-.754561-.095864-1.379229-.287597-1.874023s-.463866-.887531-.816406-1.178223c-.352541-.290691-.776202-.494791-1.270997-.612304-.494794-.117514-1.045244-.17627-1.651367-.17627-1.212245 0-2.180172.272133-2.903808.816406-.723637.544274-1.085449 1.441075-1.085449 2.69043h-3.432618c0-.915369.197915-1.753414.59375-2.51416.395836-.760746.927731-1.419431 1.595703-1.976074.667973-.556644 1.453446-.98649 2.356446-1.289551.902999-.303062 1.874018-.45459 2.913086-.45459 1.039067 0 2.006994.132974 2.903808.398926.896815.265952 1.676104.664873 2.337891 1.196777s1.175128 1.215328 1.540039 2.050293.547363 1.821446.547363 2.959473v10.297851h2.894532v2.931641h-5.789063l-.074219-3.581055h-.148437c-.531904 1.373054-1.317378 2.390459-2.356446 3.052246-1.039067.661788-2.282219.992676-3.729492.992676-.964848 0-1.83691-.148436-2.616211-.445312-.7793-.296877-1.453447-.736-2.022461-1.317383-.507164-.507164-.899901-1.113278-1.178222-1.81836-.278322-.705081-.417481-1.441076-.417481-2.208007zm3.618164.463867c0 .890629.309242 1.543129.927735 1.957519.618492.41439 1.471999.621582 2.560547.621582 1.546231 0 2.764644-.55045 3.655273-1.651367s1.335937-2.523429 1.335937-4.267578v-.87207l-6.883789.630859c-.705081.04948-1.147297.235025-1.32666.556641s-.269043.760739-.269043 1.317383zm16.680664-11.59668v-2.913086h3.265625v-6.475586h3.376953v6.475586h4.453126v2.913086h-4.453126v13.526367h4.453126v2.931641h-7.830079v-16.458008zm15.75293-5.807617v-3.581055h3.5625v3.581055zm.074219 22.265625v-19.371094h3.414062v19.371094zm8.702148-9.685547c0-1.472012.176268-2.835768.528809-4.091308.352541-1.255541.890621-2.325517 1.614258-3.209961.723636-.884445 1.629714-1.580239 2.718261-2.087403s2.368808-.760742 3.840821-.760742c1.472012 0 2.752273.253578 3.84082.760742s1.991533 1.202958 2.708984 2.087403c.717452.884444 1.255532 1.95442 1.614258 3.209961.358726 1.25554.538086 2.619296.538086 4.091308 0 1.496752-.17936 2.863601-.538086 4.100586s-.896806 2.300777-1.614258 3.191406c-.717451.89063-1.623529 1.589516-2.718261 2.09668s-2.371901.760742-3.831543.760742c-1.472013 0-2.752274-.253578-3.840821-.760742s-1.994625-1.20605-2.718261-2.09668c-.723637-.890629-1.261717-1.954421-1.614258-3.191406s-.528809-2.603834-.528809-4.100586zm3.59961 3.005859c0 .655603.139158 1.255532.41748 1.799805.278322.544274.646319 1.005044 1.104004 1.382324.457685.377281.995765.674153 1.614258.890625.618492.216473 1.274085.324707 1.966797.324707.680342 0 1.329749-.108234 1.948242-.324707.618493-.216472 1.156573-.513344 1.614258-.890625.457684-.37728.825682-.83805 1.104004-1.382324.278321-.544273.41748-1.144202.41748-1.799805v-6.011718c0-.655602-.139159-1.255531-.41748-1.799805-.278322-.544273-.64632-1.008136-1.104004-1.391601-.457685-.383466-.995765-.68343-1.614258-.899903-.618493-.216472-1.2679-.324707-1.948242-.324707s-1.332842.108235-1.95752.324707c-.624677.216473-1.16585.516437-1.623535.899903-.457685.383465-.825682.847328-1.104004 1.391601-.278322.544274-.41748 1.144203-.41748 1.799805zm19.074218 6.679688v-19.371094h3.414063v3.191406c.531904-1.138026 1.261714-2.031735 2.189453-2.681152s2.127597-.974121 3.599609-.974121c.940109 0 1.793616.126789 2.560547.380371s1.428708.658689 1.985352 1.215332c.556643.556644.989582 1.270992 1.298828 2.143067.309246.872074.463867 1.932773.463867 3.182129v12.914062h-3.432617v-12.542969c0-1.422533-.272133-2.538895-.816406-3.349121-.544274-.810225-1.552402-1.215332-3.024414-1.215332-.705082 0-1.348305.139159-1.929688.417481-.581383.278321-1.088539.677243-1.521484 1.196777s-.770019 1.134925-1.011231 1.846191c-.241212.711267-.361816 1.487464-.361816 2.328614v11.318359zm30.466797-12.691406c0-2.152355.222654-4.078931.667969-5.779785.445315-1.700855 1.110184-3.138829 1.994629-4.313965.884444-1.175136 2.010084-2.071937 3.376953-2.69043s2.978018-.927734 4.833496-.927734c1.286465 0 2.480138.182452 3.581055.547363s2.056474.890622 2.866699 1.577148c.810225.686527 1.46891 1.515295 1.976074 2.486329.507164.971033.797851 2.068841.872071 3.293457h-3.59961c-.173178-1.521492-.773107-2.693518-1.799804-3.516114-1.026698-.822595-2.443025-1.233886-4.249024-1.233886-.964849 0-1.846187.157713-2.644043.473144-.797855.315431-1.48128.751462-2.050293 1.308106-.569013.556643-1.017414 1.221513-1.345215 1.994628-.327801.773116-.491699 1.629716-.491699 2.569825v7.978515c0 .915369.170083 1.756507.510254 2.523438s.810218 1.437985 1.410156 2.013183c.599938.575199 1.311194 1.020507 2.133789 1.335938.822596.315431 1.710119.473144 2.662598.473144 2.003916 0 3.550125-.531895 4.638672-1.595703 1.088547-1.063807 1.632812-2.610016 1.632812-4.638672v-1.74414h-5.844726v-3.228516h9.46289v13.786133h-3.451171l-.166993-2.727539c-.655602.989588-1.502924 1.787432-2.541992 2.393555-1.039068.606122-2.381177.909179-4.026367.909179-1.645191 0-3.114089-.312334-4.406738-.937011-1.29265-.624678-2.381181-1.512202-3.265625-2.662598-.884445-1.150396-1.561684-2.541984-2.031739-4.174805-.470054-1.63282-.705078-3.463531-.705078-5.492187zm25.141602 7.366211c0-1.521492.482417-2.826492 1.447265-3.915039.964849-1.088547 2.4121-1.719401 4.341797-1.892578l6.308594-.575196v-1.558594c0-.754561-.095865-1.379229-.287598-1.874023-.191732-.494794-.463865-.887531-.816406-1.178223-.352541-.290691-.776202-.494791-1.270996-.612304-.494794-.117514-1.045244-.17627-1.651367-.17627-1.212246 0-2.180172.272133-2.903809.816406-.723636.544274-1.085449 1.441075-1.085449 2.69043h-3.432617c0-.915369.197915-1.753414.59375-2.51416s.927731-1.419431 1.595703-1.976074c.667972-.556644 1.453446-.98649 2.356445-1.289551.903-.303062 1.874019-.45459 2.913086-.45459 1.039068 0 2.006994.132974 2.903809.398926.896814.265952 1.676103.664873 2.33789 1.196777.661788.531904 1.175129 1.215328 1.54004 2.050293.36491.834965.547363 1.821446.547363 2.959473v10.297851h2.894531v2.931641h-5.789062l-.074219-3.581055h-.148438c-.531903 1.373054-1.317377 2.390459-2.356445 3.052246-1.039068.661788-2.282219.992676-3.729492.992676-.964849 0-1.83691-.148436-2.616211-.445312-.779301-.296877-1.453448-.736-2.022461-1.317383-.507164-.507164-.899901-1.113278-1.178223-1.81836-.278321-.705081-.41748-1.441076-.41748-2.208007zm3.618164.463867c0 .890629.309242 1.543129.927734 1.957519.618493.41439 1.472.621582 2.560547.621582 1.546232 0 2.764644-.55045 3.655274-1.651367.890629-1.100917 1.335937-2.523429 1.335937-4.267578v-.87207l-6.883789.630859c-.705082.04948-1.147297.235025-1.32666.556641s-.269043.760739-.269043 1.317383zm18.536133 4.861328v-19.371094h3.414062v3.191406c.432945-1.063807 1.100907-1.938961 2.003906-2.625488.903-.686527 2.034824-1.029785 3.395508-1.029785 1.286465 0 2.424474.321611 3.414063.964844.989588.643232 1.700844 1.65136 2.133789 3.024414.408205-1.138027 1.100906-2.087399 2.078125-2.848145.977218-.760746 2.183261-1.141113 3.618164-1.141113.84115 0 1.629716.126789 2.365723.380371.736006.253582 1.376136.658689 1.92041 1.215332.544273.556644.967934 1.270992 1.270996 2.143067.303061.872074.45459 1.932773.45459 3.182129v12.914062h-3.414063v-12.542969c0-1.422533-.272133-2.538895-.816406-3.349121-.544274-.810225-1.453444-1.215332-2.727539-1.215332-.606123 0-1.168943.139159-1.688477.417481-.519534.278321-.983396.677243-1.391601 1.196777s-.723632 1.134925-.946289 1.846191c-.222658.711267-.333985 1.487464-.333985 2.328614v11.318359h-3.432617v-12.542969c0-1.422533-.272133-2.538895-.816406-3.349121-.544274-.810225-1.44726-1.215332-2.708985-1.215332-.606122 0-1.168942.139159-1.688476.417481-.519534.278321-.983397.677243-1.391602 1.196777s-.726724 1.134925-.955566 1.846191c-.228842.711267-.343262 1.487464-.343262 2.328614v11.318359zm31.190429-9.685547c0-1.472012.182453-2.835768.547364-4.091308.36491-1.255541.909176-2.325517 1.632812-3.209961.723637-.884445 1.598791-1.580239 2.625488-2.087403 1.026698-.507164 2.208002-.760742 3.543946-.760742 1.397793 0 2.616205.241209 3.655273.723633s1.89876 1.141109 2.579102 1.976074 1.193683 1.815261 1.540039 2.940918.519531 2.337884.519531 3.636719v1.818359h-13.043945v2.05957c0 .705082.132974 1.32975.398926 1.874024.265951.544273.627764 1.005044 1.085449 1.382324.457684.377281.971026.661783 1.540039.853516s1.156572.287597 1.762695.287597c1.212246 0 2.263668-.309241 3.154297-.927734s1.397786-1.601881 1.521484-2.950195h3.432618c-.07422 1.039067-.346352 1.9637-.816407 2.773926-.470054.810225-1.07926 1.499834-1.827636 2.068847-.748377.569013-1.592606 1.008137-2.532715 1.317383s-1.929683.463867-2.96875.463867c-1.397794 0-2.619298-.253578-3.664551-.760742s-1.917314-1.20605-2.616211-2.09668c-.698897-.890629-1.218423-1.954421-1.558594-3.191406s-.510254-2.603834-.510254-4.100586zm3.59961-1.78125h9.5v-1.076172c0-.705081-.126789-1.342119-.380371-1.911133-.253582-.569013-.599933-1.05143-1.039063-1.447265s-.946286-.6958-1.521484-.899903c-.575198-.204102-1.17822-.306152-1.809082-.306152-.630863 0-1.230792.10205-1.799805.306152-.569013.204103-1.07617.504068-1.521484.899903-.445315.395835-.794758.878252-1.04834 1.447265-.253582.569014-.380371 1.206052-.380371 1.911133z" fill="#ffec00"/><path d="m88.8032 6.95712h18.5512v97.2608h-20.052v-67.2512l-33.284 39.0136h-2.0464l-31.92-38.604v66.8416h-20.052v-97.2608h19.5072l34.1016 42.2872zm79.51816 99.57936c-32.4656 0-46.516-15.0048-46.516-40.5144v-.8176c0-26.1904 18.9616-41.8784 46.9256-41.8784h106.392c28.5104 0 47.0616 15.4144 47.0616 41.8784v.8176c0 24.8272-15.96 40.5144-47.4712 40.5144zm.6824-65.8864c-16.5056 0-25.7816 8.4576-25.7816 24.5544v.6816c0 15.0056 8.3208 23.0536 25.5088 23.0536h106.392c17.8696 0 25.6456-8.1848 25.6456-23.0536v-.6816c0-15.824-8.4584-24.5544-25.3728-24.5544zm189.0496 63.56752h-21.416v-78.3h18.2792l1.9096 16.3696c5.32-11.4584 15.96-18.9616 31.6472-18.9616 22.2352 0 34.7848 14.0512 34.7848 35.876v45.016h-21.28v-39.968c0-14.46-5.184-23.4632-20.5984-23.4632-16.0968 0-23.3264 9.4128-23.3264 26.3272zm75.29336-25.91792h23.7352c2.1816 8.3208 9.0032 11.5952 24.1448 11.5952 14.732 0 19.6424-3.5464 19.6424-9.2768 0-5.8656-6.2744-7.0928-26.4632-8.184-24.2808-1.364-37.9224-6.548-37.9224-22.7808 0-15.1416 12.8232-26.3272 39.2864-26.3272s40.3776 9.0032 44.6064 26.6h-22.3712c-1.7744-7.776-9.6856-10.7768-22.508-10.7768-14.596 0-18.552 4.0928-18.552 8.8672 0 5.7288 5.5928 7.0936 25.9184 8.4576 27.0088 1.6368 38.74 6.548 38.74 23.3264 0 15.5504-13.7768 26.736-41.196 26.736-28.9184 0-43.6504-9.412-47.0608-28.2368zm120.58128 25.91792h-20.3256v-104.2176h20.3256v40.7864c5.456-10.64 15.6864-17.4608 30.692-17.4608 22.372 0 34.512 13.9144 34.512 35.6032v45.2888h-21.28v-39.1496c0-14.46-5.0464-24.2816-20.5984-24.2816-15.8232 0-23.3256 9.4128-23.3256 26.0544zm79.1108-38.1952v-.8184c0-26.1904 18.96-41.8784 46.924-41.8784 28.5104 0 47.0632 15.4144 47.0632 41.8784v.8184c0 24.8272-15.9608 40.5144-47.472 40.5144-32.4656 0-46.5152-15.0056-46.5152-40.5144zm72.5704-.136v-.6824c0-15.824-8.4568-24.5536-25.3736-24.5536-16.5056 0-25.7808 8.4576-25.7808 24.5536v.6824c0 15.0048 8.3208 23.0528 25.508 23.0528 17.8712 0 25.6464-8.1848 25.6464-23.0528zm94.39064 38.3312h-14.8696c-26.0536 0-33.1472-9.1392-33.1472-35.74v-24.5536h-19.0976v-17.188c3.9552 0 8.0488 0 11.7312-.272 5.8656-.5464 7.5024-2.456 8.7312-9.004.6816-3.6832.8176-9.412.8176-12.9592h17.7336v21.4168h28.1008v18.0064h-28.1008v21.144c0 18.1424 2.592 20.4616 18.688 20.4616h9.4128z" fill="#fff"/></g></svg>