<?xml version="1.0" encoding="UTF-8"?>
<svg width="605px" height="671px" viewBox="0 0 605 671" version="1.1" xmlns="http://www.w3.org/2000/svg" xmlns:xlink="http://www.w3.org/1999/xlink">
    <!-- Generator: Sketch 50.2 (55047) - http://www.bohemiancoding.com/sketch -->
    <title>rocket-illustration</title>
    <desc>Created with Sketch.</desc>
    <defs>
        <polygon id="path-1" points="0.0621 0.6263 178.5811 0.6263 178.5811 172 0.0621 172"></polygon>
        <polygon id="path-3" points="0 0.1805 37.2624 0.1805 37.2624 36.7755 0 36.7755"></polygon>
        <polygon id="path-5" points="0.9554 0.4051 138.9244 0.4051 138.9244 131 0.9554 131"></polygon>
        <polygon id="path-7" points="0.8921 0.8722 118.7311 0.8722 118.7311 113 0.8921 113"></polygon>
        <polygon id="path-9" points="0.5089 0.9853 131.5699 0.9853 131.5699 128 0.5089 128"></polygon>
        <polygon id="path-11" points="0.3352 0.9042 126.4272 0.9042 126.4272 122 0.3352 122"></polygon>
        <polygon id="path-13" points="0.5723 0.9872 121.1053 0.9872 121.1053 118 0.5723 118"></polygon>
        <polygon id="path-15" points="0.1447 0.1353 141.5367 0.1353 141.5367 135 0.1447 135"></polygon>
        <polygon id="path-17" points="0.91 0.6913 59.403 0.6913 59.403 54 0.91 54"></polygon>
        <polygon id="path-19" points="0.1016 0.5931 41.5886 0.5931 41.5886 39 0.1016 39"></polygon>
        <polygon id="path-21" points="0.714 0.7504 22.653 0.7504 22.653 21 0.714 21"></polygon>
        <polygon id="path-23" points="0.4654 0.6463 110.8704 0.6463 110.8704 107 0.4654 107"></polygon>
        <polygon id="path-25" points="0.7828 0.4113 56.2658 0.4113 56.2658 50 0.7828 50"></polygon>
        <polygon id="path-27" points="0.6573 0.8271 79.0553 0.8271 79.0553 77 0.6573 77"></polygon>
        <polygon id="path-29" points="0.7179 0.7582 65.2759 0.7582 65.2759 64 0.7179 64"></polygon>
    </defs>
    <g id="rocket-illustration" stroke="none" stroke-width="1" fill="none" fill-rule="evenodd">
        <path d="M281.693,98.7501 L328.451,98.7501 C334.467,117.8961 337.537,135.9581 337.537,152.5481 C337.537,177.9701 336.075,211.3601 334.453,240.5831 L333.15,262.7671 C333.091,263.7271 333.033,264.6771 332.973,265.6161 L330.366,303.2491 C330.356,303.3931 330.381,303.5331 330.388,303.6751 L312.631,303.6751 L312.631,239.5111 C312.631,237.0351 310.617,235.0211 308.141,235.0211 L302.74,235.0211 C300.264,235.0211 298.254,237.0351 298.254,239.5111 L298.254,303.6751 L279.759,303.6751 C279.766,303.5331 279.792,303.3931 279.781,303.2491 L277.276,267.2571 C277.213,266.2471 277.148,265.2151 277.084,264.1801 L275.711,240.9131 C274.081,211.6121 272.607,178.0661 272.607,152.5481 C272.607,135.9581 275.677,117.8961 281.693,98.7501 Z M285.002,88.8751 C292.166,68.9891 300.681,53.0301 305.072,45.3541 C309.464,53.0201 317.968,68.9621 325.142,88.8751 C325.491,89.8431 325.79,90.7941 326.124,91.7571 L284.02,91.7571 C284.354,90.7941 284.653,89.8431 285.002,88.8751 Z M312.631,325.6821 L312.631,310.6681 L331.029,310.6681 L335.41,325.6821 L312.631,325.6821 Z M298.254,325.6821 L274.735,325.6821 L279.119,310.6681 L298.254,310.6681 L298.254,325.6821 Z M237.506,362.3591 L244.595,362.3591 C246.528,362.3591 248.091,360.7961 248.091,358.8631 L248.091,330.8441 L271.474,311.8971 L266.714,328.1981 C266.407,329.2531 266.612,330.3941 267.274,331.2741 C267.933,332.1551 268.971,332.6741 270.071,332.6741 L298.254,332.6741 L298.254,357.8731 C298.254,360.3491 300.264,362.3591 302.74,362.3591 L308.141,362.3591 C310.617,362.3591 312.631,360.3491 312.631,357.8731 L312.631,332.6741 L340.074,332.6741 C341.173,332.6741 342.212,332.1551 342.87,331.2741 C343.533,330.3941 343.737,329.2561 343.43,328.1981 L338.672,311.8971 L362.052,330.8441 L362.052,358.8631 C362.052,360.7961 363.616,362.3591 365.548,362.3591 L372.637,362.3591 C374.369,362.3591 375.84,361.0891 376.096,359.3791 L383.779,307.6871 C383.898,306.8711 383.727,306.0421 383.297,305.3381 L341.619,237.6021 C343.171,209.0961 344.53,177.1351 344.53,152.5481 C344.53,132.3171 340.22,110.1001 331.718,86.5061 C322.381,60.5781 311.129,41.6701 308.568,37.5161 L308.568,3.4971 C308.568,1.5641 307.005,0.0001 305.072,0.0001 C303.139,0.0001 301.576,1.5641 301.576,3.4971 L301.576,37.5161 C299.015,41.6701 287.762,60.5781 278.425,86.5061 C269.923,110.1001 265.615,132.3171 265.615,152.5481 C265.615,177.1341 266.973,209.0951 268.526,237.6001 L226.85,305.3381 C226.421,306.0421 226.25,306.8711 226.369,307.6841 L234.047,359.3751 C234.304,361.0891 235.776,362.3591 237.506,362.3591 Z" id="Fill-1" fill="#4900D8"></path>
        <path d="M305.0729,162.6002 C312.2099,162.6002 317.9949,156.8142 317.9949,149.6782 C317.9949,142.5412 312.2099,136.7552 305.0729,136.7552 C297.9359,136.7552 292.1499,142.5412 292.1499,149.6782 C292.1499,156.8142 297.9359,162.6002 305.0729,162.6002" id="Fill-3" fill="#4900D8"></path>
        <path d="M305.0729,207.5846 C312.2099,207.5846 317.9949,201.7986 317.9949,194.6626 C317.9949,187.5256 312.2099,181.7396 305.0729,181.7396 C297.9359,181.7396 292.1499,187.5256 292.1499,194.6626 C292.1499,201.7986 297.9359,207.5846 305.0729,207.5846" id="Fill-5" fill="#4900D8"></path>
        <path d="M260.8512,505.6314 L279.7782,352.9324 C280.0172,351.0164 278.6542,349.2684 276.7392,349.0324 C274.8242,348.7594 273.0752,350.1564 272.8392,352.0714 L254.1692,502.6994 L206.0442,549.9624 L83.1262,670.6754 L88.1152,670.6754 L88.1172,670.6754 L257.5612,504.2694 C258.6582,504.7244 259.7772,505.1354 260.8512,505.6314" id="Fill-7" fill="#4900D8"></path>
        <path d="M293.0348,530.4459 L298.7628,380.0019 C298.8378,378.0729 297.3318,376.4479 295.4018,376.3759 C293.4968,376.2599 291.8508,377.8029 291.7758,379.7359 L286.3168,523.1349 C287.5388,524.3239 288.7218,525.5529 289.8718,526.8119 L205.5048,609.6669 L143.3808,670.6759 L148.3688,670.6759 L148.3698,670.6759 L292.1708,529.4539 C292.4548,529.7879 292.7558,530.1079 293.0348,530.4459" id="Fill-9" fill="#4900D8"></path>
        <path d="M315.8375,376.3727 C315.7965,376.3727 315.7555,376.3727 315.7115,376.3757 C313.7815,376.4407 312.2735,378.0597 312.3415,379.9917 L319.1535,575.0367 C321.2995,573.1617 323.7615,569.6017 326.1535,568.0367 L319.3275,379.7467 C319.2625,377.8577 317.7125,376.3727 315.8375,376.3727" id="Fill-11" fill="#4900D8"></path>
        <path d="M334.4059,349.026 C332.4869,349.241 331.1039,350.972 331.3189,352.891 L354.1539,556.036 C355.1539,556.036 357.3369,555.676 359.0169,555.676 C359.7039,555.676 360.3809,555.714 361.0619,555.737 L338.2709,352.113 C338.0549,350.194 336.3519,348.849 334.4059,349.026" id="Fill-13" fill="#4900D8"></path>
        <path d="M126.5094,588.5889 C126.1224,588.5789 125.7414,588.5449 125.3524,588.5449 C124.0064,588.5449 122.6864,588.6459 121.3644,588.7429 L71.7644,637.4539 C71.6594,638.5749 71.5294,639.6879 71.4944,640.8279 C70.9054,640.3659 70.2814,639.9449 69.6694,639.5119 L69.6684,639.5119 L37.9354,670.6759 L37.9364,670.6759 L42.9234,670.6759 L42.9254,670.6759 L126.5104,588.5889 L126.5094,588.5889 Z" id="Fill-15" fill="#4900D8"></path>
        <path d="M219.4039,497.3604 C217.6009,497.4374 215.8089,497.5524 214.0359,497.7334 L206.0449,505.5804 L132.7869,577.5254 C132.5729,579.3064 132.4019,581.0994 132.2919,582.9104 L132.2919,582.9114 L219.4049,497.3604 L219.4039,497.3604 Z" id="Fill-17" fill="#4900D8"></path>
        <path d="M229.361,497.4757 L205.505,520.9047 L52.998,670.6757 L57.987,670.6757 L233.931,497.8867 C232.419,497.7127 230.895,497.5747 229.361,497.4757" id="Fill-19" fill="#4900D8"></path>
        <path d="M108.8229,591.1637 C105.8019,592.1377 102.8849,593.3427 100.1229,594.8097 C100.1229,594.8097 100.1219,594.8097 100.1219,594.8097 L78.2789,616.2617 C78.2789,616.2617 78.2779,616.2617 78.2779,616.2627 C76.7369,619.0307 75.4249,621.9447 74.3839,624.9857 C74.3829,624.9867 74.3829,624.9877 74.3829,624.9887 L108.8249,591.1627 L108.8229,591.1637 Z" id="Fill-21" fill="#4900D8"></path>
        <path d="M201.8043,499.8497 C199.4193,500.4277 197.0743,501.1007 194.7663,501.8627 L137.2323,558.3647 L137.2323,558.3657 C136.4263,560.6657 135.6973,563.0027 135.0743,565.3827 L135.0743,565.3847 L201.8053,499.8497 L201.8043,499.8497 Z" id="Fill-23" fill="#4900D8"></path>
        <path d="M63.3776,635.7945 C62.2496,635.2465 61.0976,634.7455 59.9196,634.2915 L59.9186,634.2915 L22.8706,670.6755 L22.8716,670.6755 L27.8586,670.6755 L27.8596,670.6755 L63.3786,635.7945 C63.3786,635.7945 63.3776,635.7945 63.3776,635.7945" id="Fill-25" fill="#4900D8"></path>
        <path d="M264.7028,507.1485 L205.5048,565.2855 L98.1888,670.6755 L103.1788,670.6755 L267.9368,508.8725 C266.8728,508.2745 265.7938,507.7035 264.7028,507.1485" id="Fill-27" fill="#4900D8"></path>
        <g id="Group-31" transform="translate(68.000000, 498.676000)">
            <mask id="mask-2" fill="white">
                <use xlink:href="#path-1"></use>
            </mask>
            <g id="Clip-30"></g>
            <path d="M174.5641,0.6263 L138.0441,36.4913 L0.0621,172.0003 L5.0511,172.0003 L178.5811,1.5823 C177.2531,1.2333 175.9151,0.9153 174.5641,0.6263" id="Fill-29" fill="#4900D8" mask="url(#mask-2)"></path>
        </g>
        <path d="M52.1061,632.0694 C50.6691,631.8024 49.2121,631.5914 47.7311,631.4674 L47.7301,631.4674 L7.8051,670.6754 L7.8061,670.6754 L12.7931,670.6754 L12.7951,670.6754 L52.1071,632.0694 C52.1061,632.0694 52.1061,632.0694 52.1061,632.0694" id="Fill-32" fill="#4900D8"></path>
        <path d="M175.6735,510.7179 C163.9145,517.9419 153.9345,527.7639 146.4945,539.3739 C146.4935,539.3749 146.4925,539.3759 146.4925,539.3769 L175.6765,510.7159 C175.6755,510.7169 175.6745,510.7169 175.6735,510.7179" id="Fill-34" fill="#4900D8"></path>
        <g id="Group-38" transform="translate(0.000000, 631.676000)">
            <mask id="mask-4" fill="white">
                <use xlink:href="#path-3"></use>
            </mask>
            <g id="Clip-37"></g>
            <path d="M37.2604,0.1805 C35.0424,0.5155 32.8764,0.9985 30.7794,1.6485 C30.7784,1.6485 30.7784,1.6485 30.7774,1.6485 L1.5804,30.3215 L1.5804,30.3235 C0.8934,32.4075 0.3774,34.5645 0.0004,36.7725 C0.0004,36.7735 -0.0006,36.7745 -0.0006,36.7755 L37.2624,0.1805 L37.2604,0.1805 Z" id="Fill-36" fill="#4900D8" mask="url(#mask-4)"></path>
        </g>
        <path d="M274.1422,512.6715 L206.0442,579.5485 L113.2532,670.6755 L118.2432,670.6755 L277.0492,514.7155 C276.0922,514.0185 275.1262,513.3325 274.1422,512.6715" id="Fill-39" fill="#4900D8"></path>
        <path d="M598.0524,643.753 C597.4524,642.716 596.8544,641.678 596.1894,640.686 C596.1884,640.685 596.1884,640.685 596.1884,640.685 L565.6494,670.676 L565.6514,670.676 L570.6384,670.676 L570.6394,670.676 L598.0524,643.754 L598.0524,643.753 Z" id="Fill-41" fill="#4900D8"></path>
        <path d="M503.1569,558.9488 C502.3589,558.0988 501.5449,557.2658 500.7109,556.4528 C500.7099,556.4528 500.7099,556.4528 500.7099,556.4518 L384.4009,670.6758 L388.3109,670.6758 L389.3899,670.6758 L503.1569,558.9488 Z" id="Fill-43" fill="#4900D8"></path>
        <path d="M437.3102,534.8526 C435.2982,535.0846 433.3192,535.4166 431.3582,535.7996 L431.3562,535.7996 L294.0182,670.6756 L299.0072,670.6756 L379.1992,591.9226 L437.3102,534.8526 Z" id="Fill-45" fill="#4900D8"></path>
        <path d="M452.6276,534.6046 C451.0576,534.4796 449.4746,534.3996 447.8796,534.3696 L447.8786,534.3696 L309.0836,670.6756 L314.0726,670.6756 L379.1986,606.7166 L452.6276,534.6046 Z" id="Fill-47" fill="#4900D8"></path>
        <g id="Group-51" transform="translate(278.000000, 539.676000)">
            <mask id="mask-6" fill="white">
                <use xlink:href="#path-5"></use>
            </mask>
            <g id="Clip-50"></g>
            <path d="M138.9244,0.4051 C135.4044,1.8421 132.0274,3.5451 128.7874,5.4601 L0.9554,131.0001 L5.9444,131.0001 L101.7394,36.9231 L138.9244,0.4051 Z" id="Fill-49" fill="#4900D8" mask="url(#mask-6)"></path>
        </g>
        <g id="Group-54" transform="translate(263.000000, 557.676000)">
            <mask id="mask-8" fill="white">
                <use xlink:href="#path-7"></use>
            </mask>
            <g id="Clip-53"></g>
            <path d="M118.7311,2.1732 C117.5271,1.7032 116.3061,1.2672 115.0671,0.8722 L115.0661,0.8722 L0.8921,113.0002 L5.8811,113.0002 L116.1991,4.6602 L118.7311,2.1732 Z" id="Fill-52" fill="#4900D8" mask="url(#mask-8)"></path>
        </g>
        <path d="M486.6617,545.5616 C485.6287,544.9356 484.5807,544.3316 483.5157,543.7526 C483.5157,543.7526 483.5157,543.7526 483.5157,543.7516 L354.2747,670.6756 L359.2637,670.6756 L379.1987,651.0976 L486.6617,545.5616 Z" id="Fill-55" fill="#4900D8"></path>
        <path d="M476.7584,540.4928 C475.5874,539.9958 474.4024,539.5258 473.2014,539.0858 L339.2094,670.6758 L344.1984,670.6758 L379.1984,636.3038 L476.7584,540.4928 Z" id="Fill-57" fill="#4900D8"></path>
        <g id="Group-61" transform="translate(173.000000, 542.676000)">
            <mask id="mask-10" fill="white">
                <use xlink:href="#path-9"></use>
            </mask>
            <g id="Clip-60"></g>
            <path d="M131.5699,4.1883 C131.0149,3.1073 130.4389,2.0403 129.8419,0.9853 L33.0449,96.0483 L0.5089,128.0003 L5.4979,128.0003 L5.4989,128.0003 L131.5699,4.1883 Z" id="Fill-59" fill="#4900D8" mask="url(#mask-10)"></path>
        </g>
        <path d="M299.0358,537.5045 C298.3748,536.5255 297.6998,535.5545 297.0018,534.6035 L206.0448,623.9295 L158.4448,670.6755 L163.4328,670.6755 L163.4338,670.6755 L299.0358,537.5045 Z" id="Fill-62" fill="#4900D8"></path>
        <g id="Group-66" transform="translate(369.000000, 548.676000)">
            <mask id="mask-12" fill="white">
                <use xlink:href="#path-11"></use>
            </mask>
            <g id="Clip-65"></g>
            <path d="M123.6422,0.9042 L0.3352,122.0002 L5.3252,122.0002 L10.1992,117.2142 L126.4272,3.0692 C125.5152,2.3282 124.5882,1.6042 123.6422,0.9042" id="Fill-64" fill="#4900D8" mask="url(#mask-12)"></path>
        </g>
        <path d="M355.6227,555.9024 C353.7127,556.0304 351.8337,556.2464 349.9767,556.5474 L233.7647,670.6754 L238.7527,670.6754 L238.7537,670.6754 L355.6227,555.9024 Z" id="Fill-67" fill="#4900D8"></path>
        <path d="M365.61,555.9869 L248.827,670.6759 L253.816,670.6759 L370.008,556.5679 C368.56,556.3169 367.091,556.1319 365.61,555.9869" id="Fill-69" fill="#4900D8"></path>
        <path d="M335.6784,560.6959 C331.4484,562.5229 327.4554,564.7839 323.7834,567.4769 L218.7004,670.6759 L223.6894,670.6759 L223.6904,670.6759 L335.6784,560.6959 C335.6784,560.6959 335.6784,560.6959 335.6784,560.6959" id="Fill-71" fill="#4900D8"></path>
        <g id="Group-75" transform="translate(188.000000, 552.676000)">
            <mask id="mask-14" fill="white">
                <use xlink:href="#path-13"></use>
            </mask>
            <g id="Clip-74"></g>
            <path d="M119.7223,0.9872 L17.5043,101.3722 L0.5723,118.0002 L5.5623,118.0002 L121.1053,4.5282 C120.6683,3.3352 120.2053,2.1562 119.7223,0.9872" id="Fill-73" fill="#4900D8" mask="url(#mask-14)"></path>
        </g>
        <path d="M311.4996,564.7467 C311.4996,564.7467 311.4996,564.7467 311.4986,564.7467 L206.0446,668.3107 L203.6366,670.6757 L208.6256,670.6757 L312.4696,568.6937 C312.1756,567.3667 311.8506,566.0517 311.4996,564.7467" id="Fill-76" fill="#4900D8"></path>
        <g id="Group-80" transform="translate(324.000000, 535.676000)">
            <mask id="mask-16" fill="white">
                <use xlink:href="#path-15"></use>
            </mask>
            <g id="Clip-79"></g>
            <path d="M141.5367,1.0433 C140.1947,0.7033 138.8397,0.4043 137.4717,0.1353 L0.1447,135.0003 L5.1337,135.0003 L5.1347,135.0003 L55.1987,85.8323 L141.5367,1.0433 Z" id="Fill-78" fill="#4900D8" mask="url(#mask-16)"></path>
        </g>
        <path d="M583.8199,627.6695 C582.8769,626.9565 581.9309,626.2485 580.9419,625.5975 C580.9409,625.5975 580.9409,625.5975 580.9399,625.5975 L535.0389,670.6755 L535.0409,670.6755 L540.0279,670.6755 L540.0289,670.6755 L583.8199,627.6695 Z" id="Fill-81" fill="#4900D8"></path>
        <path d="M571.0641,620.502 L519.9741,670.676 L524.9631,670.676 L574.5141,622.014 C573.3821,621.475 572.2381,620.963 571.0641,620.502" id="Fill-83" fill="#4900D8"></path>
        <g id="Group-87" transform="translate(504.000000, 616.676000)">
            <mask id="mask-18" fill="white">
                <use xlink:href="#path-17"></use>
            </mask>
            <g id="Clip-86"></g>
            <path d="M55.192,0.6913 L0.91,54.0003 L5.9,54.0003 L59.403,1.4563 C58.02,1.1403 56.613,0.8993 55.192,0.6913" id="Fill-85" fill="#4900D8" mask="url(#mask-18)"></path>
        </g>
        <g id="Group-90" transform="translate(550.000000, 631.676000)">
            <mask id="mask-20" fill="white">
                <use xlink:href="#path-19"></use>
            </mask>
            <g id="Clip-89"></g>
            <path d="M39.2086,0.5931 L0.1016,39.0001 L5.0906,39.0001 L41.5886,3.1561 C40.8126,2.2851 40.0396,1.4121 39.2086,0.5931" id="Fill-88" fill="#4900D8" mask="url(#mask-20)"></path>
        </g>
        <g id="Group-93" transform="translate(580.000000, 649.676000)">
            <mask id="mask-22" fill="white">
                <use xlink:href="#path-21"></use>
            </mask>
            <g id="Clip-92"></g>
            <path d="M22.652,4.3544 C22.256,3.1324 21.813,1.9334 21.334,0.7514 C21.334,0.7504 21.334,0.7504 21.333,0.7504 L0.714,21.0004 L0.715,21.0004 L5.703,21.0004 L5.704,21.0004 L22.653,4.3554 L22.652,4.3544 Z" id="Fill-91" fill="#4900D8" mask="url(#mask-22)"></path>
        </g>
        <path d="M282.6276,519.1339 L206.0446,594.3429 L128.3176,670.6759 L133.3086,670.6759 L285.2456,521.4619 C284.3876,520.6699 283.5156,519.8929 282.6276,519.1339" id="Fill-94" fill="#4900D8"></path>
        <path d="M604.5475,662.0645 L595.7775,670.6755 L600.7695,670.6755 L605.0845,666.4375 C604.9695,664.9595 604.7795,663.5055 604.5475,662.0645" id="Fill-96" fill="#4900D8"></path>
        <path d="M515.5221,576.3907 C514.9631,575.3157 514.3801,574.2557 513.7731,573.2107 L513.7731,573.2087 L414.5271,670.6757 L419.5161,670.6757 L515.5231,576.3907 C515.5221,576.3907 515.5221,576.3907 515.5221,576.3907" id="Fill-98" fill="#4900D8"></path>
        <g id="Group-102" transform="translate(399.000000, 563.676000)">
            <mask id="mask-24" fill="white">
                <use xlink:href="#path-23"></use>
            </mask>
            <g id="Clip-101"></g>
            <path d="M108.7604,0.6463 L0.4654,107.0003 L5.4544,107.0003 L110.8704,3.4753 C110.1884,2.5153 109.4854,1.5723 108.7604,0.6463" id="Fill-100" fill="#4900D8" mask="url(#mask-24)"></path>
        </g>
        <path d="M519.9957,586.7926 C519.5777,585.5846 519.1317,584.3896 518.6567,583.2096 C518.6567,583.2096 518.6567,583.2086 518.6557,583.2086 L429.5917,670.6756 L429.5937,670.6756 L434.5807,670.6756 L434.5817,670.6756 L519.9957,586.7926 Z" id="Fill-103" fill="#4900D8"></path>
        <path d="M544.2819,617.2179 L489.8469,670.6759 L494.8379,670.6759 L549.7039,616.7939 C547.8729,616.8499 546.0609,616.9809 544.2819,617.2179" id="Fill-105" fill="#4900D8"></path>
        <g id="Group-109" transform="translate(474.000000, 620.676000)">
            <mask id="mask-26" fill="white">
                <use xlink:href="#path-25"></use>
            </mask>
            <g id="Clip-108"></g>
            <path d="M49.2838,4.0033 C49.3818,3.3923 49.4238,2.7643 49.5078,2.1483 L0.7828,50.0003 L5.7728,50.0003 L56.2658,0.4113 C53.8468,1.4493 51.5108,2.6423 49.2838,4.0033" id="Fill-107" fill="#4900D8" mask="url(#mask-26)"></path>
        </g>
        <g id="Group-112" transform="translate(444.000000, 593.676000)">
            <mask id="mask-28" fill="white">
                <use xlink:href="#path-27"></use>
            </mask>
            <g id="Clip-111"></g>
            <path d="M79.0553,4.9061 C78.8123,3.5341 78.5343,2.1751 78.2203,0.8291 C78.2203,0.8281 78.2193,0.8281 78.2193,0.8271 L0.6573,77.0001 L0.6583,77.0001 L5.6463,77.0001 L79.0553,4.9071 L79.0553,4.9061 Z" id="Fill-110" fill="#4900D8" mask="url(#mask-28)"></path>
        </g>
        <g id="Group-115" transform="translate(459.000000, 606.676000)">
            <mask id="mask-30" fill="white">
                <use xlink:href="#path-29"></use>
            </mask>
            <g id="Clip-114"></g>
            <path d="M65.1139,0.7582 L0.7179,64.0002 L5.7079,64.0002 L65.2759,5.5002 C65.2739,3.9062 65.2109,2.3282 65.1139,0.7582" id="Fill-113" fill="#4900D8" mask="url(#mask-30)"></path>
        </g>
    </g>
</svg>