<svg height="140" viewBox="0 0 160 140" width="160" xmlns="http://www.w3.org/2000/svg"><path d="m80.0003751 86.7334649c-49.7318284 0-75.74639285-11.7686006-75.74639285-18.0767986 0-4.4595539 13.01778585-11.643307 38.20856325-15.4733915-1.5680463 3.8053259-2.6071584 7.8859978-2.9522786 12.1692402-.0165058.2010701-.0172561.4051412-.0307608.6069615 1.394736 4.7701621 18.9778626 8.5454776 40.520869 8.5454776 21.5430069 0 39.1261329-3.7753155 40.5208689-8.5454776-.013505-.2018203-.015005-.4058914-.030761-.6069615-.34587-4.2832424-1.384982-8.3639143-2.953029-12.1692402 25.190778 3.8300845 38.209314 11.0138376 38.209314 15.4733915 0 6.308198-26.014564 18.0767986-75.7463929 18.0767986zm-45.4936016 3.7190459-5.3388603 5.2435771c-.0030011-.0412644-.0292602-.0847796-.0292602-.1267942 0-1.3242114 1.512527-3.1886111 5.3681205-5.1167829zm-.8342907 9.8179212c-1.5680464-.8507967-2.7714657-1.7120968-3.5232277-2.5568912l9.5320714-9.3625122c.2783469-.0937827.5551934-.1875654.8462948-.2805978 1.5838019.2528381 3.1841095.4981736 4.8354349.720251zm6.4379932 2.676932c-1.658828-.542439-3.1143352-1.107385-4.4115372-1.685837l12.3530543-12.1317271c1.8043787.2198266 3.6432695.4201464 5.5136712.6032102zm7.192006 1.933424c-1.7368552-.385634-3.3761764-.793026-4.8797003-1.223676l13.913598-13.6637612c1.8681509.1613062 3.7730647.2978538 5.6974852.4208967zm7.7104366 1.426997c-1.822385-.274595-3.5689936-.571699-5.2165677-.895062l15.0997613-14.8289165c1.934174.1035361 3.8923563.1868151 5.8722962.2505874zm8.1583426.985844c-1.9094153-.177062-3.7325505-.387135-5.4986659-.617465l16.0518431-15.7644932c2.0001969.0435151 4.0153991.0720251 6.0538594.0735256zm8.5889928.562696c-1.9874425-.08478-3.9148641-.197319-5.7807643-.339118l16.852372-16.5500169c2.1074844-.0210073 4.1939614-.0622717 6.25643-.1275444zm9.2724808.181563c-.3196113.001501-.6212164.013505-.9430786.013505-1.8501446 0-3.6492715-.030011-5.4138864-.077277l17.5621193-17.2477598c2.3063036-.0982842 4.5743439-.2288297 6.8108732-.381883zm9.439039-.270844c-2.0504645.111039-4.1782059.182313-6.3592158.226579l18.222349-17.8959859c2.306304-.186815 4.567592-.4013898 6.783114-.642974zm29.1206462-19.7116184c.029261.0082528.05702.0180062.08553.0277596l-19.187936 18.8435658c-2.1517493.249087-4.418289.454658-6.765857.625718l18.838314-18.499946c2.41059-.3008548 4.752906-.6347212 7.029949-.9970974zm-8.174848 17.1374714c-2.2958.474165-4.775414.902564-7.428338 1.277695l17.939501-17.6176385c1.670081.6159646 3.07157 1.2386816 4.239727 1.8523954zm19.533056-10.1847989-6.28494 6.1724009c-2.442851 1.105135-5.556436 2.160753-9.289737 3.105332l12.686921-12.4603418c1.732354 1.168157 2.627415 2.2665397 2.887756 3.1826089zm-74.7350404-51.329135c3.9051107-3.7250479 8.4291871-5.3216042 10.1037706-3.5652422 1.6753337 1.756362-.1327963 6.1994101-4.037907 9.924458-3.9051107 3.725048-8.4284368 5.3216043-10.1037705 3.5652423-1.6745835-1.756362.1327962-6.1994101 4.0379069-9.9244581zm103.7844124 24.9777032c0-8.7938141-18.220099-16.3977136-44.693073-20.0387322-6.981933-12.2982852-20.1505209-20.6179341-35.3065519-20.6179341-15.1560309 0-28.3246193 8.3196489-35.3073024 20.6179341-26.4722239 3.6410186-44.6930727 11.2449181-44.6930727 20.0387322 0 7.3578137 12.7762017 13.8745844 32.4458053 17.9417516-5.0830211 2.5643935-7.688679 5.5639387-7.688679 8.9708758 0 11.0716073 27.8354489 16.8643763 55.3325299 16.8643763 27.4970808 0 55.3347808-5.792769 55.3347808-16.8643763 0-3.4181911-2.627416-6.4244886-7.738196-8.9918831 19.600579-4.069418 32.313759-10.5779358 32.313759-17.9207443z" fill="#ffec00" fill-rule="evenodd"/></svg>