<svg height="140" viewBox="0 0 160 140" width="160" xmlns="http://www.w3.org/2000/svg"><path d="m39.0268734 114.429248h.0007503l-11.6853216 11.475999v-.000751c-.3233627-.66098-.5034254-1.333964-.5034254-2.019703 0-.17181.0255089-.341369.0457659-.510178l6.9886851-6.864142h.0007503c1.5110265-.734506 3.2291251-1.432249 5.1527954-2.081225zm8.4492191-2.278619c1.2244266-.265592 2.4901176-.514679 3.797073-.749511l-19.234452 18.890082c-.6684829-.389386-1.2716931-.787775-1.8186337-1.194416l14.9512096-14.682616 2.3040528-2.263539zm11.0348449-1.83829c1.1238916-.139549 2.2650392-.269344 3.4279444-.387135l-23.5957216 23.172574c-.7622656-.267844-1.4975218-.543189-2.1937644-.825288l15.1755377-14.903193zm31.5373888-.998673-.8440441.829038-28.1145461 27.610371c-.9175698-.098284-1.8216348-.202571-2.7144459-.31436l11.4212296-11.216408 17.3512959-17.039937c.9753398.036763 1.943177.080278 2.9005106.131296zm-21.4374446.076976c1.0586189-.065272 2.1254906-.123043 3.2066173-.170309l-26.4009491 25.928284c-.8260378-.198069-1.6295678-.401389-2.4105899-.612963l13.6089919-13.364407zm11.3894935-.34512c.3856344 0 .7660169.006002 1.1501508.008253l-28.1205483 27.616373h-.0007502c-.8733043-.144051-1.7353547-.292602-2.5756475-.449407v-.00075l13.190346-12.954014 14.4665407-14.20695c.6279688-.006002 1.2559376-.013505 1.8899085-.013505zm26.6144739 1.995095-6.6345621 6.516771-21.5415059 21.154371c-1.0030995-.008253-1.9986964-.022508-2.9860404-.047267l7.4943613-7.360064 21.0388311-20.661449c.89131.126044 1.767616.25809 2.628916.397638zm-8.0762645-1.066046-4.2577335 4.181207-24.721864 24.27921c-.9595844-.053269-1.9116661-.11254-2.8517437-.180063l9.2409699-9.074412 19.825658-19.470784c.9340755.081028 1.853896.170309 2.7647133.264842zm15.7129505 2.564393-9.808918 9.633357-16.6918163 16.391711c-1.0353608.042015-2.0819755.074276-3.1353425.099785l3.6462705-3.580998 23.5169443-23.094547c.845545.175562 1.66633.360876 2.472862.550692zm7.101899 2.024356-11.837625 11.6253-11.9111499 11.697326c-1.0938811.107288-2.2057685.204071-3.3311607.291852l.1365476-.134297 24.661093-24.218439c.790025.238584 1.54929.484669 2.282295.738258zm6.344211 2.766589-12.464093 12.241265-7.011944 6.885899c-1.17866.207072-2.388082.40064-3.626013.581453l21.110106-20.731974h.00075c.709747.333116 1.374479.674485 1.991194 1.023357zm-11.645858 17.456782 15.156781-14.885937c.548441.550692.997097 1.112638 1.317459 1.686588l-12.16774 11.949414c-1.34972.438903-2.78497.857549-4.3065 1.249935zm-36.0514119-34.9128146c-1.1741591 0-2.1262408-.9520818-2.1262408-2.1262409v-22.4628269c0-1.1749094.9520817-2.1269911 2.1262408-2.1269911 1.1741592 0 2.1269912.9520817 2.1269912 2.1269911v22.4628269c0 1.1741591-.952832 2.1262409-2.1269912 2.1262409zm-48.1207921-1.8419668c-.1215423 0-.2445852-.0105037-.3691286-.0322613-1.1569031-.2018203-1.9304226-1.3047046-1.7271018-2.4616077l4.1309394-23.5409526c.2018203-1.1554025 1.297202-1.9289221 2.4616077-1.7271017 1.1569031.2025705 1.9304227 1.3054548 1.7271018 2.4616077l-4.1309394 23.5409525c-.180813 1.0323597-1.0788759 1.7593631-2.0924791 1.7593631zm96.353673.6462751c-1.013603 0-1.911666-.7277535-2.091729-1.759363l-4.040908-23.0270235c-.20332-1.1561528.570199-2.2597874 1.727102-2.4616077 1.162905-.2093229 2.259788.5694484 2.461608 1.7263515l4.040908 23.0270235c.203321 1.1569031-.570199 2.2597874-1.727102 2.462358-.124543.0210073-.248336.0322612-.369879.0322612zm-48.2328809-97.6781847c15.156031 0 28.3246189 8.31964888 35.3065519 20.6179341 26.472224 3.6410186 44.693073 11.2449181 44.693073 20.0387322 0 12.3327972-35.81673 22.3300306-79.9996249 22.3300306-44.1836452 0-80.0003751-9.9972334-80.0003751-22.3300306 0-8.7938141 18.2208488-16.3977136 44.6930727-20.0387322 6.9819328-12.29828522 20.1505212-20.6179341 35.3073024-20.6179341zm0 58.7334649c49.7310779 0 75.7463929-11.7686006 75.7463929-18.0767986 0-4.4595539-13.018536-11.643307-38.209314-15.4733915 1.568047 3.8053259 2.607159 7.8859978 2.953029 12.1692402.015756.2010701.016506.4051412.030761.6077118-1.395486 4.7694118-18.977862 8.5447273-40.5208689 8.5447273-21.5437566 0-39.126133-3.7753155-40.5216192-8.5447273.0142549-.2025706.0150052-.4066417.0307607-.6077118.3458705-4.2832424 1.3849826-8.3639143 2.9530289-12.1692402-25.1907774 3.8300845-38.20931351 11.0138376-38.20931351 15.4733915 0 6.308198 26.01531471 18.0767986 75.74714311 18.0767986zm0-41.1158263c-7.5648859 0-13.2121036 4.5863481-15.5634228 6.8783967-.783273.7652667-.8110326 1.7496097-.0787775 2.4706109 2.3025523 2.2657895 7.9917846 6.9556736 15.6422003 6.9556736 7.2572787 0 12.7499426-4.2209707 15.2603173-6.5887958.9783409-.9220713 1.03311-2.1374948.1538036-2.9807886-2.4345983-2.3355638-8.0052894-6.7350968-15.4141209-6.7350968zm0 12.797059c-2.5651438 0-4.6441182-2.0789744-4.6441182-4.6441182s2.0789744-4.6448684 4.6441182-4.6448684c2.5643936 0 4.643368 2.0797246 4.643368 4.6448684s-2.0789744 4.6441182-4.643368 4.6441182z" fill="#ffec00" fill-rule="evenodd"/></svg>